<?xml version="1.0" encoding="UTF-8" standalone="no"?>
<!-- Created with Inkscape (http://www.inkscape.org/) -->

<svg
   width="146.40257mm"
   height="198.9559mm"
   viewBox="0 0 146.40257 198.9559"
   version="1.1"
   id="svg5"
   xml:space="preserve"
   inkscape:version="1.2.1 (9c6d41e410, 2022-07-14)"
   sodipodi:docname="user_profile_background.svg"
   xmlns:inkscape="http://www.inkscape.org/namespaces/inkscape"
   xmlns:sodipodi="http://sodipodi.sourceforge.net/DTD/sodipodi-0.dtd"
   xmlns="http://www.w3.org/2000/svg"
   xmlns:svg="http://www.w3.org/2000/svg"><sodipodi:namedview
     id="namedview7"
     pagecolor="#ffffff"
     bordercolor="#000000"
     borderopacity="0.25"
     inkscape:showpageshadow="2"
     inkscape:pageopacity="0.0"
     inkscape:pagecheckerboard="0"
     inkscape:deskcolor="#d1d1d1"
     inkscape:document-units="mm"
     showgrid="false"
     inkscape:zoom="0.37282198"
     inkscape:cx="-126.06553"
     inkscape:cy="506.94436"
     inkscape:window-width="1920"
     inkscape:window-height="1017"
     inkscape:window-x="1912"
     inkscape:window-y="-8"
     inkscape:window-maximized="1"
     inkscape:current-layer="layer1" /><defs
     id="defs2" /><g
     inkscape:label="Шар 1"
     inkscape:groupmode="layer"
     id="layer1"><g
       id="g170"
       transform="matrix(0.65540012,0,0,0.65540012,12.433623,9.9641822)"><g
         id="g166"><path
           style="fill:#000000;stroke-width:0.137493"
           d="m 51.390191,152.88331 c 0.07849,-5.1893 0.198192,-6.52823 0.866769,-9.69478 1.081797,-5.12366 3.096833,-9.92149 5.990408,-14.26326 1.51126,-2.26762 2.373263,-3.3721 4.06053,-5.20272 4.005726,-4.34607 9.093541,-7.87214 14.631789,-10.14045 l 1.495289,-0.61243 0.53547,0.27318 c 0.991071,0.50561 3.235894,1.34812 4.732094,1.77603 3.06661,0.87703 5.83986,1.25761 9.15071,1.25575 4.80573,-0.003 8.79564,-0.89054 13.77213,-3.06464 0.47177,-0.2061 0.52131,-0.19664 1.9249,0.36765 13.07378,5.25602 22.6997,17.3578 25.00319,31.43419 0.42531,2.599 0.56752,4.85765 0.56752,9.01328 v 3.77358 H 92.71842 51.31585 Z M 90.1784,110.22399 C 77.954513,109.03459 68.127206,99.677403 66.262452,87.452123 c -0.307865,-2.01834 -0.30863,-5.82423 -0.0016,-7.74953 0.791273,-4.96118 2.790733,-9.47337 5.788018,-13.06185 4.438499,-5.31397 10.45089,-8.67773 17.09048,-9.56162 1.73384,-0.23081 5.12386,-0.25897 6.76212,-0.0562 5.9636,0.73826 11.18337,3.24043 15.44436,7.40347 4.89103,4.7786 7.55622,10.53093 8.06522,17.40731 1.01289,13.68399 -8.94496,26.092887 -22.61948,28.187087 -1.72101,0.26356 -4.96747,0.3633 -6.61321,0.20317 z"
           id="path191" /></g></g></g></svg>
